<svg fill="#21325b" height="200px" width="200px" version="1.1" id="Layer_1" xmlns="http://www.w3.org/2000/svg" xmlns:xlink="http://www.w3.org/1999/xlink" viewBox="0 0 512.001 512.001" xml:space="preserve" stroke="#21325b">
                                            <g id="SVGRepo_bgCarrier" stroke-width="0"></g>
                                            <g id="SVGRepo_tracerCarrier" stroke-linecap="round" stroke-linejoin="round"></g>
                                            <g id="SVGRepo_iconCarrier">
                                                <g>
                                                    <g>
                                                        <g>
                                                            <path d="M512.001,155.779H512c0-17.696-14.397-32.093-32.096-32.093h-79.966c-8.18,0-15.649,3.08-21.324,8.136 c-5.674-5.055-13.144-8.136-21.324-8.136h-39.043c-3.382-21.65-12.056-38.165-20.431-49.665 c-14.716-20.21-31.649-29.649-32.363-30.041c-4.071-2.236-9.117-1.61-12.517,1.552c-3.401,3.162-4.393,8.147-2.46,12.37 c8.969,19.594,6.171,41.644-8.264,65.783h-87.506c-8.18,0-15.649,3.08-21.323,8.136c-5.675-5.055-13.145-8.136-21.326-8.136 H32.094C14.397,123.685,0,138.082,0,155.779v38.384c0,8.18,3.08,15.65,8.137,21.324C3.08,221.161,0,228.631,0,236.811v38.382 c0,8.18,3.08,15.65,8.136,21.323C3.08,302.19,0,309.66,0,317.84v38.384c0,8.18,3.08,15.651,8.137,21.325 C3.08,383.224,0,390.694,0,398.874v38.382c0,17.697,14.397,32.096,32.094,32.096h202.581c7.929,0,15.427-2.881,21.319-8.142 c5.676,5.059,13.148,8.142,21.33,8.142h202.581c17.698,0,32.096-14.398,32.096-32.096v-38.382c0-8.18-3.08-15.65-8.137-21.324 c5.055-5.675,8.137-13.145,8.137-21.325v-38.384c0-8.18-3.08-15.65-8.137-21.323c5.055-5.674,8.137-13.144,8.137-21.324v-38.383 c0-8.18-3.08-15.651-8.137-21.325c5.055-5.674,8.137-13.145,8.137-21.324V155.779z M317.143,169.651 c1.631-8.638,2.425-16.775,2.558-24.425h37.591c5.819,0,10.554,4.733,10.554,10.554v38.384c0,5.819-4.734,10.554-10.554,10.554 h-46.224C312.671,194.305,314.691,182.639,317.143,169.651z M308.142,226.256h16.816c-7.688,4.867-13.633,10.383-18.217,15.902 C307.002,237.474,307.474,232.16,308.142,226.256z M144.156,155.779c-0.001-5.82,4.732-10.554,10.552-10.554H226.7 c-0.527,0.63-1.048,1.259-1.589,1.891c-15.055,17.58-30.662,37.012-44.214,57.6H154.71c-5.819,0-10.554-4.733-10.554-10.554 V155.779z M21.54,155.779c0-5.819,4.734-10.554,10.554-10.554h79.966c5.82,0,10.556,4.733,10.556,10.554v38.384 c0,5.819-4.734,10.554-10.556,10.554H32.094c-5.819,0-10.554-4.733-10.554-10.554V155.779z M21.54,236.811 c0-5.82,4.734-10.556,10.554-10.556h79.966h42.649h13.084c-10.698,19.25-18.975,39.251-22.92,59.491H112.06H32.094 c-5.819,0-10.554-4.733-10.554-10.554V236.811z M156.825,366.78h-2.117c-5.819,0-10.552-4.734-10.552-10.556v-24.647 c0.138,0.763,0.275,1.525,0.429,2.288C146.884,345.231,150.991,356.227,156.825,366.78z M21.54,317.84 c0-5.819,4.734-10.554,10.554-10.554h79.966c5.82,0,10.556,4.734,10.556,10.554v38.384c0,5.82-4.734,10.556-10.556,10.556H32.094 c-5.819,0-10.554-4.735-10.554-10.556V317.84z M234.674,447.812H32.094c-5.819,0-10.554-4.734-10.554-10.556v-38.382 c0-5.819,4.734-10.554,10.554-10.554h79.966h42.649h16.972c1.552,1.857,3.148,3.701,4.822,5.522 c16.298,17.735,38.838,34.231,67.043,49.113C241.665,445.872,238.395,447.812,234.674,447.812z M165.697,329.593 c-7.166-35.414,7.643-72.913,29.763-107.796c0.288-0.396,0.555-0.807,0.785-1.241c13.537-21.147,29.708-41.307,45.226-59.429 c6.023-7.032,11.12-13.83,15.419-20.392c0.203-0.281,0.391-0.571,0.565-0.871c14.195-21.954,19.368-41.205,19.619-57.411 c13.315,16.357,26.403,43.462,18.902,83.201c-3.648,19.321-6.3,35.325-8.087,48.672c-0.002,0.024-0.006,0.046-0.01,0.07 c-5.959,44.552-2.241,59.407,6.504,68.686c2.861,3.036,7.211,4.194,11.178,2.897c3.966-1.297,6.818-4.718,7.334-8.858 c0.14-0.977,3.216-20.543,25.22-33.635c0.437,15.186,2.929,37.595,12.362,57.202c0.173,0.413,0.38,0.807,0.601,1.192 c1.087,2.177,2.234,4.328,3.503,6.417c4.652,7.655,14.493,27.918,5.424,50.689c-11.055,27.756-46.59,50.803-102.872,66.774 C203.834,398.395,173.075,366.052,165.697,329.593z M490.46,437.256c0,5.82-4.734,10.556-10.556,10.556H277.323 c-3.004,0-5.711-1.268-7.635-3.288c46.48-14.005,79.223-32.839,97.789-56.203h32.461h79.966c5.82,0,10.556,4.734,10.556,10.554 V437.256z M490.46,356.225c0,5.82-4.734,10.556-10.556,10.556h-79.966c-5.819,0-10.554-4.734-10.554-10.556V317.84 c0-5.819,4.734-10.554,10.554-10.554h79.966c5.82,0,10.556,4.735,10.556,10.554V356.225z M490.46,275.193 c0,5.819-4.734,10.554-10.556,10.554h-79.966h-32.494c-10.24-26.231-7.521-57.645-7.488-57.996 c0.047-0.501,0.052-0.999,0.029-1.495h39.953h79.966c5.82,0,10.556,4.736,10.556,10.556V275.193z M490.46,194.163 c0,5.819-4.734,10.554-10.556,10.554h-79.966c-5.819,0-10.554-4.733-10.554-10.554v-38.384c0-5.82,4.733-10.554,10.554-10.554 h79.966c5.82,0,10.556,4.733,10.556,10.554V194.163z"></path>
                                                            <path d="M231.353,225.196c-4.968-3.277-11.646-1.907-14.922,3.057l-0.457,0.693c-3.242,4.987-1.826,11.657,3.161,14.899 c1.814,1.178,3.847,1.742,5.859,1.742c3.525,0,6.978-1.727,9.041-4.901l0.373-0.565 C237.685,235.153,236.317,228.473,231.353,225.196z"></path>
                                                            <path d="M206.559,313.374c-0.579-13.169,3.67-29.015,12.632-47.098c2.641-5.329,0.462-11.791-4.867-14.432 c-5.328-2.642-11.791-0.461-14.432,4.868c-10.597,21.381-15.594,40.762-14.852,57.609c0.913,20.79,11.189,40.456,30.54,58.453 c2.074,1.93,4.705,2.883,7.332,2.883c2.887,0,5.766-1.154,7.889-3.436c4.051-4.355,3.803-11.171-0.554-15.221 C215.185,342.991,207.215,328.313,206.559,313.374z"></path>
                                                        </g>
                                                    </g>
                                                </g>
                                            </g>
                                        </svg>