<svg xmlns="http://www.w3.org/2000/svg" xmlns:xlink="http://www.w3.org/1999/xlink" xmlns:xodm="http://www.corel.com/coreldraw/odm/2003" xml:space="preserve" width="120" height="120" version="1.1" style="shape-rendering:geometricPrecision; text-rendering:geometricPrecision; image-rendering:optimizeQuality; fill-rule:evenodd; clip-rule:evenodd" viewBox="0 0 3499.73 3499.73">
                                            <defs>
                                                <style type="text/css">
                                                    .str0 {
                                                        stroke: black;
                                                        stroke-width: 39.37;
                                                        stroke-miterlimit: 2.61313
                                                    }

                                                    .fil0 {
                                                        fill: none
                                                    }

                                                    .fil1 {
                                                        fill: black
                                                    }

                                                    .fil3 {
                                                        fill: #21325b                                                    }

                                                    .fil2 {
                                                        fill: white
                                                    }

                                                    .fil4 {
                                                        fill: white
                                                    }
                                                </style>
                                            </defs>
                                            <g id="Layer_x0020_1">
                                                <metadata id="CorelCorpID_0Corel-Layer"></metadata>
                                                <g id="_3085189795488">
                                                    <line class="fil0 str0" x1="869.3" y1="432.02" x2="869.3" y2="0"></line>
                                                    <line class="fil0 str0" x1="1161.87" y1="437.23" x2="1161.87" y2="5.21"></line>
                                                    <line class="fil0 str0" x1="1406.63" y1="437.23" x2="1406.63" y2="5.21"></line>
                                                    <line class="fil0 str0" x1="1651.39" y1="437.23" x2="1651.39" y2="5.21"></line>
                                                    <line class="fil0 str0" x1="1896.15" y1="437.23" x2="1896.15" y2="5.21"></line>
                                                    <line class="fil0 str0" x1="2140.91" y1="437.23" x2="2140.91" y2="5.21"></line>
                                                    <line class="fil0 str0" x1="2385.67" y1="437.23" x2="2385.67" y2="5.21"></line>
                                                    <line class="fil0 str0" x1="2630.43" y1="437.23" x2="2630.43" y2="5.21"></line>
                                                </g>
                                                <g id="_3085189811952">
                                                    <line class="fil0 str0" x1="869.3" y1="3494.52" x2="869.3" y2="3062.5"></line>
                                                    <line class="fil0 str0" x1="1161.87" y1="3499.73" x2="1161.87" y2="3067.71"></line>
                                                    <line class="fil0 str0" x1="1406.63" y1="3499.73" x2="1406.63" y2="3067.71"></line>
                                                    <line class="fil0 str0" x1="1651.39" y1="3499.73" x2="1651.39" y2="3067.71"></line>
                                                    <line class="fil0 str0" x1="1896.15" y1="3499.73" x2="1896.15" y2="3067.71"></line>
                                                    <line class="fil0 str0" x1="2140.91" y1="3499.73" x2="2140.91" y2="3067.71"></line>
                                                    <line class="fil0 str0" x1="2385.67" y1="3499.73" x2="2385.67" y2="3067.71"></line>
                                                    <line class="fil0 str0" x1="2630.43" y1="3499.73" x2="2630.43" y2="3067.71"></line>
                                                </g>
                                                <g id="_3085189820112">
                                                    <line class="fil0 str0" x1="432.02" y1="2630.43" x2="-0" y2="2630.43"></line>
                                                    <line class="fil0 str0" x1="437.23" y1="2337.86" x2="5.21" y2="2337.86"></line>
                                                    <line class="fil0 str0" x1="437.23" y1="2093.1" x2="5.21" y2="2093.1"></line>
                                                    <line class="fil0 str0" x1="437.23" y1="1848.34" x2="5.21" y2="1848.34"></line>
                                                    <line class="fil0 str0" x1="437.23" y1="1603.58" x2="5.21" y2="1603.58"></line>
                                                    <line class="fil0 str0" x1="437.23" y1="1358.82" x2="5.21" y2="1358.82"></line>
                                                    <line class="fil0 str0" x1="437.23" y1="1114.06" x2="5.21" y2="1114.06"></line>
                                                    <line class="fil0 str0" x1="437.23" y1="869.3" x2="5.21" y2="869.3"></line>
                                                </g>
                                                <g id="_3085189826544">
                                                    <line class="fil0 str0" x1="3494.52" y1="2630.43" x2="3062.5" y2="2630.43"></line>
                                                    <line class="fil0 str0" x1="3499.73" y1="2337.86" x2="3067.71" y2="2337.86"></line>
                                                    <line class="fil0 str0" x1="3499.73" y1="2093.1" x2="3067.71" y2="2093.1"></line>
                                                    <line class="fil0 str0" x1="3499.73" y1="1848.34" x2="3067.71" y2="1848.34"></line>
                                                    <line class="fil0 str0" x1="3499.73" y1="1603.58" x2="3067.71" y2="1603.58"></line>
                                                    <line class="fil0 str0" x1="3499.73" y1="1358.82" x2="3067.71" y2="1358.82"></line>
                                                    <line class="fil0 str0" x1="3499.73" y1="1114.06" x2="3067.71" y2="1114.06"></line>
                                                    <line class="fil0 str0" x1="3499.73" y1="869.3" x2="3067.71" y2="869.3"></line>
                                                </g>
                                                <path class="fil1" d="M785.89 590.91l1944.3 0c105.28,0 191.41,86.14 191.41,191.42l0 1923.81c0,105.28 -86.14,191.41 -191.41,191.41l-1944.3 0c-105.28,0 -191.42,-86.13 -191.42,-191.41l0 -1923.81c0,-105.28 86.14,-191.42 191.42,-191.42z"></path>
                                                <path class="fil2" d="M871.36 692.31l1773.34 0c96.02,0 174.59,78.56 174.59,174.59l0 1754.66c0,96.02 -78.56,174.58 -174.59,174.58l-1773.34 0c-96.02,0 -174.59,-78.56 -174.59,-174.58l0 -1754.66c0,-96.02 78.56,-174.59 174.59,-174.59z"></path>
                                                <path class="fil3" d="M955.39 792l1605.28 0c86.92,0 158.04,71.12 158.04,158.04l0 1588.38c0,86.92 -71.12,158.04 -158.04,158.04l-1605.28 0c-86.92,0 -158.04,-71.12 -158.04,-158.04l0 -1588.38c0,-86.92 71.12,-158.04 158.04,-158.04z"></path>
                                                <polygon class="fil4" points="1859.77,1144.13 1349.35,1829.55 1647.27,1833.72 1645.18,2355.6 2150.39,1651.43 1871.22,1644.14 "></polygon>
                                            </g>
                                        </svg>