<svg fill="#21325b" height="200px" width="200px" version="1.1" id="Layer_1" xmlns="http://www.w3.org/2000/svg" xmlns:xlink="http://www.w3.org/1999/xlink" viewBox="0 0 512 512" xml:space="preserve" stroke="#21325b">
                                            <g id="SVGRepo_bgCarrier" stroke-width="0"></g>
                                            <g id="SVGRepo_tracerCarrier" stroke-linecap="round" stroke-linejoin="round"></g>
                                            <g id="SVGRepo_iconCarrier">
                                                <g>
                                                    <g>
                                                        <path d="M499.677,426.489c4.427,0,8.017-3.588,8.017-8.017V84.977c0-2.1-0.863-4.184-2.348-5.669l-76.96-76.96 C426.899,0.862,424.816,0,422.716,0H106.323C92.472,0,81.204,11.268,81.204,25.119v9.086H12.261 c-6.988,0-10.615,8.738-5.668,13.686l62.741,62.74l-62.74,62.74c-4.947,4.947-1.321,13.686,5.668,13.686h68.944v299.825 c0,13.851,11.268,25.119,25.119,25.119h376.251c13.851,0,25.119-11.268,25.119-25.119v-34.205c0-4.428-3.589-8.017-8.017-8.017 s-8.017,3.588-8.017,8.017v34.205c0,5.01-4.076,9.086-9.086,9.086H106.324c-5.01,0-9.086-4.076-9.086-9.086V187.056h51.841 c4.427,0,8.017-3.588,8.017-8.017s-3.589-8.017-8.017-8.017H31.615L86.339,116.3c3.131-3.132,3.131-8.207,0-11.338L31.615,50.238 h348.88v120.785H183.285c-4.427,0-8.017,3.588-8.017,8.017s3.589,8.017,8.017,8.017h205.228c4.427,0,8.017-3.588,8.017-8.017 V42.221c0-4.428-3.589-8.017-8.017-8.017H97.239v-9.086c0-5.01,4.076-9.086,9.086-9.086H414.7v51.841 c0,13.851,11.268,25.119,25.119,25.119h51.841v325.478C491.66,422.9,495.25,426.489,499.677,426.489z M439.818,76.96 c-5.01,0-9.086-4.076-9.086-9.086V27.37l49.59,49.59H439.818z"></path>
                                                    </g>
                                                </g>
                                                <g>
                                                    <g>
                                                        <path d="M174.733,76.96c-4.427,0-8.017,3.588-8.017,8.017v51.307c0,4.428,3.589,8.017,8.017,8.017s8.017-3.588,8.017-8.017V84.977 C182.75,80.549,179.161,76.96,174.733,76.96z"></path>
                                                    </g>
                                                </g>
                                                <g>
                                                    <g>
                                                        <path d="M226.04,102.614h-17.637v-9.62h17.637c4.427,0,8.017-3.588,8.017-8.017c0-4.428-3.589-8.017-8.017-8.017h-25.653 c-4.427,0-8.017,3.588-8.017,8.017v25.653c0,4.428,3.589,8.017,8.017,8.017h17.637v9.62h-17.637c-4.427,0-8.017,3.588-8.017,8.017 s3.589,8.017,8.017,8.017h25.653c4.427,0,8.017-3.588,8.017-8.017V110.63C234.057,106.202,230.468,102.614,226.04,102.614z"></path>
                                                    </g>
                                                </g>
                                                <g>
                                                    <g>
                                                        <path d="M285.898,76.96h-34.205c-4.427,0-8.017,3.588-8.017,8.017v51.307c0,4.428,3.589,8.017,8.017,8.017h34.205 c4.427,0,8.017-3.588,8.017-8.017V84.977C293.915,80.549,290.326,76.96,285.898,76.96z M277.882,128.267H259.71V92.994h18.171 V128.267z"></path>
                                                    </g>
                                                </g>
                                                <g>
                                                    <g>
                                                        <path d="M277.347,290.739c-18.566,0-33.67,15.104-33.67,33.67s15.105,33.67,33.67,33.67s33.67-15.105,33.67-33.67 S295.913,290.739,277.347,290.739z M277.347,342.046c-9.725,0-17.637-7.912-17.637-17.637s7.912-17.637,17.637-17.637 s17.637,7.912,17.637,17.637S287.072,342.046,277.347,342.046z"></path>
                                                    </g>
                                                </g>
                                                <g>
                                                    <g>
                                                        <path d="M360.904,362.608c-1.498-2.167-3.962-3.46-6.596-3.46c-2.634,0-5.1,1.293-6.596,3.46 c-4.52,6.545-27.074,39.999-27.074,55.864c0,18.566,15.105,33.67,33.67,33.67c18.566,0,33.67-15.105,33.67-33.67 C387.978,402.607,365.424,369.153,360.904,362.608z M354.308,436.109c-9.725,0-17.637-7.912-17.637-17.637 c0-5.84,8.286-21.877,17.638-36.736c9.351,14.853,17.636,30.887,17.636,36.736C371.944,428.197,364.032,436.109,354.308,436.109z"></path>
                                                    </g>
                                                </g>
                                                <g>
                                                    <g>
                                                        <path d="M404.408,354.06c-2.163-3.636-6.784-4.967-10.549-3.034l-9.551,4.899l-0.511-1.362c2.763-9.774,4.18-19.901,4.18-30.155 c0-61.002-49.629-110.63-110.63-110.63s-110.631,49.629-110.631,110.63s49.628,110.63,110.63,110.63 c5.797,0,11.59-0.454,17.287-1.348c11.508,21.159,33.941,35.552,59.673,35.552c37.426,0,67.875-30.448,67.875-67.875 C422.182,389.641,416.369,374.166,404.408,354.06z M288.58,418.337c-3.719,0.439-7.474,0.668-11.234,0.668 c-52.161,0-94.597-42.436-94.597-94.597s42.436-94.596,94.598-94.596c51.659,0,93.771,41.624,94.578,93.092l-10.112-26.964 c-2.544-6.783-12.469-6.783-15.013,0l-20.033,53.422l-3.12-4.87c-3.093-4.828-10.375-4.844-13.486-0.022 c-15.967,24.746-23.729,43.357-23.729,56.898C286.432,407.226,287.178,412.911,288.58,418.337z M354.308,453.211 c-28.585,0-51.841-23.256-51.841-51.841c0-6.035,2.709-17.26,14.56-37.491l4.877,7.612c3.495,5.456,11.986,4.546,14.256-1.509 l18.148-48.392l18.148,48.392c1.656,4.417,6.958,6.472,11.165,4.318l10.753-5.516c9.623,17.436,11.776,27.276,11.776,32.586 C406.149,429.955,382.893,453.211,354.308,453.211z"></path>
                                                    </g>
                                                </g>
                                            </g>
                                        </svg>